<svg width="20" height="21" viewBox="0 0 20 21" fill="none" xmlns="http://www.w3.org/2000/svg">
<path d="M0.289216 7.08703C0.279399 7.10421 0.269582 7.12385 0.259765 7.14348L0.289216 7.08703ZM0.289216 7.08703C0.293828 7.07781 0.299403 7.06954 0.304735 7.06164C0.307919 7.05692 0.311016 7.05234 0.313769 7.04775L0.289216 7.08703ZM19.7572 7.18059L19.7572 7.18051C19.7536 7.16959 19.7486 7.16003 19.7432 7.14977C19.7414 7.14624 19.7395 7.14263 19.7376 7.13884C19.7327 7.12903 19.7278 7.11983 19.7229 7.11062C19.718 7.10141 19.7131 7.0922 19.7081 7.08237L19.7082 7.08241C19.7062 7.07912 19.7042 7.07566 19.7022 7.07213C19.6967 7.06243 19.6908 7.05216 19.6836 7.04318L19.6836 7.04315C19.664 7.0137 19.6419 6.98426 19.6198 6.9548C19.6075 6.94007 19.5928 6.9229 19.5781 6.90819L19.5781 6.90814C19.5683 6.89592 19.5561 6.88613 19.5438 6.87631L19.5437 6.87627C19.5335 6.86607 19.5222 6.85707 19.5113 6.84841C19.5064 6.84457 19.5017 6.8408 19.4971 6.83701L19.4971 6.83699L19.7572 7.18059ZM19.7572 7.18059C19.7621 7.19037 19.7658 7.20077 19.7692 7.2112C19.7725 7.2216 19.7756 7.23204 19.7793 7.24186L19.7572 7.18059ZM19.4432 6.7978L19.4431 6.79777L10.4688 0.823879C10.3304 0.731462 10.1678 0.682138 10.0014 0.682138C9.83498 0.682138 9.67232 0.731462 9.53395 0.823879L0.554704 6.80267L0.554646 6.80271L0.554644 6.80271C0.552242 6.80391 0.549829 6.80572 0.547363 6.80757L0.547334 6.80759C0.544898 6.80942 0.542411 6.81128 0.539912 6.81253L0.540001 6.81247C0.527729 6.82229 0.515437 6.83213 0.500686 6.84196L0.500701 6.84195C0.48948 6.84996 0.479333 6.85901 0.46952 6.86775C0.464317 6.87239 0.459207 6.87694 0.454082 6.88121L0.454073 6.88122C0.447963 6.88611 0.44246 6.89161 0.436932 6.89714L0.436922 6.89715C0.431404 6.90266 0.425861 6.90821 0.419699 6.91314L0.419745 6.9131C0.405007 6.92783 0.390308 6.94253 0.378063 6.95968L0.378025 6.95973L0.378022 6.95973C0.353505 6.9867 0.333884 7.01612 0.314248 7.04803C0.311486 7.05264 0.308377 7.05724 0.305191 7.06196C0.304119 7.06355 0.303037 7.06516 0.301957 7.06678C0.297664 7.07322 0.293382 7.07995 0.289715 7.08728L0.289701 7.08731C0.279893 7.10447 0.270083 7.12409 0.260265 7.14373L0.260251 7.14375L0.260232 7.14379C0.256568 7.1499 0.253511 7.15662 0.250442 7.16368C0.249899 7.16493 0.249355 7.16619 0.248808 7.16746C0.246267 7.17334 0.243645 7.17942 0.240608 7.18549L0.240109 7.18525L0.240631 7.18544C0.236951 7.19526 0.23327 7.20568 0.229587 7.21612L0.229586 7.21612C0.225903 7.22656 0.222218 7.237 0.218533 7.24683L0.218011 7.24663L0.21854 7.24681C0.217533 7.24983 0.216528 7.25274 0.215544 7.25559C0.21172 7.26667 0.20823 7.27679 0.206284 7.28846L0.206279 7.28849H0.206278C0.20137 7.31058 0.196462 7.33512 0.191552 7.35967L0.191549 7.35969L0.184189 7.39648C0.179281 7.43329 0.176828 7.47009 0.176828 7.5069V13.4857C0.176828 13.5225 0.17928 13.5593 0.184186 13.5961C0.184187 13.5961 0.184188 13.5961 0.184189 13.5961L0.191548 13.6329L0.191549 13.6329L0.206263 13.704C0.206267 13.7041 0.20627 13.7041 0.206274 13.7041C0.208729 13.7114 0.210572 13.7182 0.212411 13.7249C0.214252 13.7317 0.21609 13.7384 0.21854 13.7458C0.225902 13.7679 0.233265 13.7875 0.240631 13.8071L0.240639 13.8072C0.244279 13.8181 0.249268 13.8276 0.254628 13.8379C0.256472 13.8414 0.258359 13.8451 0.260251 13.8488C0.262752 13.8538 0.265092 13.8587 0.267392 13.8634C0.27414 13.8774 0.280548 13.8906 0.289689 13.9053L0.289695 13.9053C0.291669 13.9086 0.293639 13.912 0.295651 13.9156C0.301177 13.9253 0.307029 13.9355 0.314205 13.9445L0.314224 13.9445C0.318337 13.9503 0.322166 13.956 0.32599 13.9618C0.333617 13.9732 0.341223 13.9846 0.351024 13.996L0.351036 13.9961L0.380493 14.0329C0.392768 14.0476 0.407486 14.0648 0.4222 14.0795L0.422244 14.0795C0.432017 14.0918 0.444244 14.1015 0.456529 14.1114L0.456577 14.1114C0.466765 14.1216 0.478115 14.1306 0.489041 14.1393C0.493884 14.1431 0.498643 14.1469 0.503181 14.1507L19.4432 6.7978ZM19.4432 6.7978C19.4456 6.799 19.448 6.80081 19.4505 6.80266L19.4505 6.80268C19.4529 6.8045 19.4554 6.80635 19.4579 6.8076L19.4432 6.7978ZM19.6914 13.9448C19.6942 13.9403 19.6973 13.9357 19.7005 13.9309C19.7058 13.923 19.7114 13.9148 19.716 13.9056C19.7209 13.8957 19.7258 13.8865 19.7307 13.8773C19.7357 13.8681 19.7406 13.8589 19.7455 13.8491C19.7498 13.8419 19.7533 13.8338 19.7569 13.8254C19.7595 13.8195 19.7621 13.8134 19.7651 13.8073L19.7646 13.8071C19.7683 13.7973 19.7719 13.7869 19.7756 13.7765C19.7793 13.766 19.783 13.7556 19.7867 13.7458C19.7916 13.7335 19.7965 13.7188 19.7989 13.7041L19.7989 13.704C19.804 13.689 19.8067 13.6727 19.8095 13.6561C19.8108 13.6485 19.8121 13.6407 19.8137 13.6329L19.821 13.5961C19.8259 13.5593 19.8284 13.5225 19.8284 13.4857V7.50204C19.8235 7.47748 19.8207 7.4529 19.818 7.42835C19.8167 7.41609 19.8153 7.40383 19.8137 7.39159C19.8137 7.39158 19.8137 7.39158 19.8137 7.39157L19.8063 7.35477C19.8048 7.3471 19.8035 7.33968 19.8022 7.33235C19.7994 7.31618 19.7966 7.30049 19.7916 7.28362C19.7906 7.28064 19.7896 7.27775 19.7886 7.27491L19.6914 13.9448ZM10.8448 3.10009V3.1002L10.8467 3.10146V7.03301H10.8462L10.8469 7.03348L14.5054 9.47901L14.5049 9.47976L14.506 9.47901L17.4598 7.50491L17.4595 7.50444L17.4592 7.50398L17.4587 7.50323L10.8478 3.10087V3.09953H10.8473V3.09897H10.8448V3.09953V3.10009ZM10.8467 3.10009V3.10012L10.8466 3.10009H10.8467ZM9.15582 7.03348L9.15607 7.03385V7.03301V3.09953H9.15551L9.1552 3.09907L2.54292 7.50398L2.54323 7.50444L2.54354 7.50491L2.54404 7.50565L5.49672 9.47901L5.49622 9.47976L5.49734 9.47901L9.15582 7.03348ZM1.86556 9.08078L1.86524 9.08125L1.865 9.08162V11.9044H1.86556H1.86611H1.86656L3.97747 10.4931L3.97716 10.4926L3.97685 10.4921L3.97635 10.4914L1.86587 9.08032L1.86556 9.08078ZM2.54323 13.4783L2.54354 13.4788L2.54404 13.4795L9.1552 17.8837L9.15551 17.8832H9.15607V13.9498H9.15652L9.15582 13.9493L5.49734 11.5038L5.49784 11.503L5.49672 11.5038L2.54292 13.4779L2.54323 13.4783ZM9.99984 12.4868L9.99934 12.4876L10.0005 12.4868L12.9862 10.4906L12.9859 10.4902L12.9856 10.4897L12.9851 10.4889L10.0005 8.49594L10.001 8.49519L9.99984 8.49594L7.01413 10.4921L7.01444 10.4926L7.01475 10.4931L7.01525 10.4938L9.99984 12.4868ZM10.8445 13.9493L10.8442 13.9489V13.9498V17.8832H10.8448L10.8451 17.8837L17.4574 13.4788L17.4571 13.4783L17.4568 13.4779L17.4563 13.4771L14.5036 11.5038L14.5041 11.503L14.503 11.5038L10.8445 13.9493ZM18.1348 11.902L18.1351 11.9015L18.1353 11.9012V9.07833H18.1348H18.1342H18.1337L16.0228 10.4897L16.0231 10.4902L16.0235 10.4906L16.024 10.4914L18.1344 11.9025L18.1348 11.902Z" fill="white" stroke="white" stroke-width="0.00111607"/>
</svg>
